<mxfile host="65bd71144e">
    <diagram name="Page-1" id="NidvvSA-zXaxL2Pu9Qfp">
        <mxGraphModel dx="2261" dy="765" grid="1" gridSize="10" guides="1" tooltips="1" connect="1" arrows="1" fold="1" page="1" pageScale="1" pageWidth="850" pageHeight="1100" math="0" shadow="0">
            <root>
                <mxCell id="0"/>
                <mxCell id="1" parent="0"/>
                <mxCell id="GDLetpXZg3lUrLNFWh9c-10" value="Users" style="swimlane;fontStyle=0;childLayout=stackLayout;horizontal=1;startSize=26;fillColor=none;horizontalStack=0;resizeParent=1;resizeParentMax=0;resizeLast=0;collapsible=1;marginBottom=0;whiteSpace=wrap;html=1;" parent="1" vertex="1">
                    <mxGeometry x="-190" y="343" width="140" height="130" as="geometry"/>
                </mxCell>
                <mxCell id="GDLetpXZg3lUrLNFWh9c-60" value="+ id: PK" style="text;strokeColor=none;fillColor=none;align=left;verticalAlign=top;spacingLeft=4;spacingRight=4;overflow=hidden;rotatable=0;points=[[0,0.5],[1,0.5]];portConstraint=eastwest;whiteSpace=wrap;html=1;" parent="GDLetpXZg3lUrLNFWh9c-10" vertex="1">
                    <mxGeometry y="26" width="140" height="26" as="geometry"/>
                </mxCell>
                <mxCell id="GDLetpXZg3lUrLNFWh9c-11" value="+ name: varchar" style="text;strokeColor=none;fillColor=none;align=left;verticalAlign=top;spacingLeft=4;spacingRight=4;overflow=hidden;rotatable=0;points=[[0,0.5],[1,0.5]];portConstraint=eastwest;whiteSpace=wrap;html=1;" parent="GDLetpXZg3lUrLNFWh9c-10" vertex="1">
                    <mxGeometry y="52" width="140" height="26" as="geometry"/>
                </mxCell>
                <mxCell id="GDLetpXZg3lUrLNFWh9c-12" value="+ email: varchar" style="text;strokeColor=none;fillColor=none;align=left;verticalAlign=top;spacingLeft=4;spacingRight=4;overflow=hidden;rotatable=0;points=[[0,0.5],[1,0.5]];portConstraint=eastwest;whiteSpace=wrap;html=1;" parent="GDLetpXZg3lUrLNFWh9c-10" vertex="1">
                    <mxGeometry y="78" width="140" height="26" as="geometry"/>
                </mxCell>
                <mxCell id="GDLetpXZg3lUrLNFWh9c-13" value="+ isEmployee: bool" style="text;strokeColor=none;fillColor=none;align=left;verticalAlign=top;spacingLeft=4;spacingRight=4;overflow=hidden;rotatable=0;points=[[0,0.5],[1,0.5]];portConstraint=eastwest;whiteSpace=wrap;html=1;" parent="GDLetpXZg3lUrLNFWh9c-10" vertex="1">
                    <mxGeometry y="104" width="140" height="26" as="geometry"/>
                </mxCell>
                <mxCell id="GDLetpXZg3lUrLNFWh9c-14" value="Ingredients" style="swimlane;fontStyle=0;childLayout=stackLayout;horizontal=1;startSize=26;fillColor=none;horizontalStack=0;resizeParent=1;resizeParentMax=0;resizeLast=0;collapsible=1;marginBottom=0;whiteSpace=wrap;html=1;" parent="1" vertex="1">
                    <mxGeometry x="210" y="160" width="200" height="130" as="geometry"/>
                </mxCell>
                <mxCell id="GDLetpXZg3lUrLNFWh9c-15" value="+ id: PK" style="text;strokeColor=none;fillColor=none;align=left;verticalAlign=top;spacingLeft=4;spacingRight=4;overflow=hidden;rotatable=0;points=[[0,0.5],[1,0.5]];portConstraint=eastwest;whiteSpace=wrap;html=1;" parent="GDLetpXZg3lUrLNFWh9c-14" vertex="1">
                    <mxGeometry y="26" width="200" height="26" as="geometry"/>
                </mxCell>
                <mxCell id="GDLetpXZg3lUrLNFWh9c-25" value="+ name: varchar" style="text;strokeColor=none;fillColor=none;align=left;verticalAlign=top;spacingLeft=4;spacingRight=4;overflow=hidden;rotatable=0;points=[[0,0.5],[1,0.5]];portConstraint=eastwest;whiteSpace=wrap;html=1;" parent="GDLetpXZg3lUrLNFWh9c-14" vertex="1">
                    <mxGeometry y="52" width="200" height="26" as="geometry"/>
                </mxCell>
                <mxCell id="GDLetpXZg3lUrLNFWh9c-16" value="+ unitMoneyAmount: decimal" style="text;strokeColor=none;fillColor=none;align=left;verticalAlign=top;spacingLeft=4;spacingRight=4;overflow=hidden;rotatable=0;points=[[0,0.5],[1,0.5]];portConstraint=eastwest;whiteSpace=wrap;html=1;" parent="GDLetpXZg3lUrLNFWh9c-14" vertex="1">
                    <mxGeometry y="78" width="200" height="26" as="geometry"/>
                </mxCell>
                <mxCell id="GDLetpXZg3lUrLNFWh9c-68" value="+ availableAmount: int" style="text;strokeColor=none;fillColor=none;align=left;verticalAlign=top;spacingLeft=4;spacingRight=4;overflow=hidden;rotatable=0;points=[[0,0.5],[1,0.5]];portConstraint=eastwest;whiteSpace=wrap;html=1;" parent="GDLetpXZg3lUrLNFWh9c-14" vertex="1">
                    <mxGeometry y="104" width="200" height="26" as="geometry"/>
                </mxCell>
                <mxCell id="GDLetpXZg3lUrLNFWh9c-18" value="Snacks" style="swimlane;fontStyle=0;childLayout=stackLayout;horizontal=1;startSize=26;fillColor=none;horizontalStack=0;resizeParent=1;resizeParentMax=0;resizeLast=0;collapsible=1;marginBottom=0;whiteSpace=wrap;html=1;" parent="1" vertex="1">
                    <mxGeometry x="210" y="330" width="200" height="130" as="geometry"/>
                </mxCell>
                <object label="+ id: PK" text="" oi="" id="GDLetpXZg3lUrLNFWh9c-30">
                    <mxCell style="text;strokeColor=none;fillColor=none;align=left;verticalAlign=top;spacingLeft=4;spacingRight=4;overflow=hidden;rotatable=0;points=[[0,0.5],[1,0.5]];portConstraint=eastwest;whiteSpace=wrap;html=1;" parent="GDLetpXZg3lUrLNFWh9c-18" vertex="1">
                        <mxGeometry y="26" width="200" height="26" as="geometry"/>
                    </mxCell>
                </object>
                <mxCell id="GDLetpXZg3lUrLNFWh9c-19" value="+ name: varchar" style="text;strokeColor=none;fillColor=none;align=left;verticalAlign=top;spacingLeft=4;spacingRight=4;overflow=hidden;rotatable=0;points=[[0,0.5],[1,0.5]];portConstraint=eastwest;whiteSpace=wrap;html=1;" parent="GDLetpXZg3lUrLNFWh9c-18" vertex="1">
                    <mxGeometry y="52" width="200" height="26" as="geometry"/>
                </mxCell>
                <object label="+ description: varchar" text="" oi="" id="GDLetpXZg3lUrLNFWh9c-23">
                    <mxCell style="text;strokeColor=none;fillColor=none;align=left;verticalAlign=top;spacingLeft=4;spacingRight=4;overflow=hidden;rotatable=0;points=[[0,0.5],[1,0.5]];portConstraint=eastwest;whiteSpace=wrap;html=1;" parent="GDLetpXZg3lUrLNFWh9c-18" vertex="1">
                        <mxGeometry y="78" width="200" height="26" as="geometry"/>
                    </mxCell>
                </object>
                <object label="+ unitMoneyAmount: decimal" text="" oi="" id="GDLetpXZg3lUrLNFWh9c-20">
                    <mxCell style="text;strokeColor=none;fillColor=none;align=left;verticalAlign=top;spacingLeft=4;spacingRight=4;overflow=hidden;rotatable=0;points=[[0,0.5],[1,0.5]];portConstraint=eastwest;whiteSpace=wrap;html=1;" parent="GDLetpXZg3lUrLNFWh9c-18" vertex="1">
                        <mxGeometry y="104" width="200" height="26" as="geometry"/>
                    </mxCell>
                </object>
                <mxCell id="GDLetpXZg3lUrLNFWh9c-26" value="SnackItems" style="swimlane;fontStyle=0;childLayout=stackLayout;horizontal=1;startSize=26;fillColor=none;horizontalStack=0;resizeParent=1;resizeParentMax=0;resizeLast=0;collapsible=1;marginBottom=0;whiteSpace=wrap;html=1;" parent="1" vertex="1">
                    <mxGeometry x="490" y="330" width="200" height="130" as="geometry"/>
                </mxCell>
                <mxCell id="GDLetpXZg3lUrLNFWh9c-27" value="+ id: PK" style="text;strokeColor=none;fillColor=none;align=left;verticalAlign=top;spacingLeft=4;spacingRight=4;overflow=hidden;rotatable=0;points=[[0,0.5],[1,0.5]];portConstraint=eastwest;whiteSpace=wrap;html=1;" parent="GDLetpXZg3lUrLNFWh9c-26" vertex="1">
                    <mxGeometry y="26" width="200" height="26" as="geometry"/>
                </mxCell>
                <object label="+ snackId: FK" text="" oi="" id="GDLetpXZg3lUrLNFWh9c-28">
                    <mxCell style="text;strokeColor=none;fillColor=none;align=left;verticalAlign=top;spacingLeft=4;spacingRight=4;overflow=hidden;rotatable=0;points=[[0,0.5],[1,0.5]];portConstraint=eastwest;whiteSpace=wrap;html=1;" parent="GDLetpXZg3lUrLNFWh9c-26" vertex="1">
                        <mxGeometry y="52" width="200" height="26" as="geometry"/>
                    </mxCell>
                </object>
                <object label="+ ingredientId: FK" text="" oi="" id="GDLetpXZg3lUrLNFWh9c-29">
                    <mxCell style="text;strokeColor=none;fillColor=none;align=left;verticalAlign=top;spacingLeft=4;spacingRight=4;overflow=hidden;rotatable=0;points=[[0,0.5],[1,0.5]];portConstraint=eastwest;whiteSpace=wrap;html=1;" parent="GDLetpXZg3lUrLNFWh9c-26" vertex="1">
                        <mxGeometry y="78" width="200" height="26" as="geometry"/>
                    </mxCell>
                </object>
                <object label="+ ingredientAmount: int" text="" oi="" id="GDLetpXZg3lUrLNFWh9c-69">
                    <mxCell style="text;strokeColor=none;fillColor=none;align=left;verticalAlign=top;spacingLeft=4;spacingRight=4;overflow=hidden;rotatable=0;points=[[0,0.5],[1,0.5]];portConstraint=eastwest;whiteSpace=wrap;html=1;" parent="GDLetpXZg3lUrLNFWh9c-26" vertex="1">
                        <mxGeometry y="104" width="200" height="26" as="geometry"/>
                    </mxCell>
                </object>
                <mxCell id="GDLetpXZg3lUrLNFWh9c-31" style="edgeStyle=orthogonalEdgeStyle;rounded=0;orthogonalLoop=1;jettySize=auto;html=1;entryX=1;entryY=0.5;entryDx=0;entryDy=0;" parent="1" source="GDLetpXZg3lUrLNFWh9c-28" target="GDLetpXZg3lUrLNFWh9c-30" edge="1">
                    <mxGeometry relative="1" as="geometry"/>
                </mxCell>
                <mxCell id="GDLetpXZg3lUrLNFWh9c-32" style="edgeStyle=orthogonalEdgeStyle;rounded=0;orthogonalLoop=1;jettySize=auto;html=1;entryX=1;entryY=0.5;entryDx=0;entryDy=0;endArrow=ERmany;endFill=0;startArrow=none;startFill=0;" parent="1" source="GDLetpXZg3lUrLNFWh9c-29" target="GDLetpXZg3lUrLNFWh9c-15" edge="1">
                    <mxGeometry relative="1" as="geometry">
                        <Array as="points">
                            <mxPoint x="740" y="421"/>
                            <mxPoint x="740" y="199"/>
                        </Array>
                    </mxGeometry>
                </mxCell>
                <mxCell id="GDLetpXZg3lUrLNFWh9c-33" value="Menus" style="swimlane;fontStyle=0;childLayout=stackLayout;horizontal=1;startSize=26;fillColor=none;horizontalStack=0;resizeParent=1;resizeParentMax=0;resizeLast=0;collapsible=1;marginBottom=0;whiteSpace=wrap;html=1;" parent="1" vertex="1">
                    <mxGeometry x="210" y="536" width="200" height="104" as="geometry"/>
                </mxCell>
                <object label="+ id: PK" text="" oi="" id="GDLetpXZg3lUrLNFWh9c-34">
                    <mxCell style="text;strokeColor=none;fillColor=none;align=left;verticalAlign=top;spacingLeft=4;spacingRight=4;overflow=hidden;rotatable=0;points=[[0,0.5],[1,0.5]];portConstraint=eastwest;whiteSpace=wrap;html=1;" parent="GDLetpXZg3lUrLNFWh9c-33" vertex="1">
                        <mxGeometry y="26" width="200" height="26" as="geometry"/>
                    </mxCell>
                </object>
                <mxCell id="GDLetpXZg3lUrLNFWh9c-35" value="+ name: varchar" style="text;strokeColor=none;fillColor=none;align=left;verticalAlign=top;spacingLeft=4;spacingRight=4;overflow=hidden;rotatable=0;points=[[0,0.5],[1,0.5]];portConstraint=eastwest;whiteSpace=wrap;html=1;" parent="GDLetpXZg3lUrLNFWh9c-33" vertex="1">
                    <mxGeometry y="52" width="200" height="26" as="geometry"/>
                </mxCell>
                <object label="+ description: varchar" text="" oi="" id="GDLetpXZg3lUrLNFWh9c-36">
                    <mxCell style="text;strokeColor=none;fillColor=none;align=left;verticalAlign=top;spacingLeft=4;spacingRight=4;overflow=hidden;rotatable=0;points=[[0,0.5],[1,0.5]];portConstraint=eastwest;whiteSpace=wrap;html=1;" parent="GDLetpXZg3lUrLNFWh9c-33" vertex="1">
                        <mxGeometry y="78" width="200" height="26" as="geometry"/>
                    </mxCell>
                </object>
                <mxCell id="GDLetpXZg3lUrLNFWh9c-38" value="MenuItems" style="swimlane;fontStyle=0;childLayout=stackLayout;horizontal=1;startSize=26;fillColor=none;horizontalStack=0;resizeParent=1;resizeParentMax=0;resizeLast=0;collapsible=1;marginBottom=0;whiteSpace=wrap;html=1;" parent="1" vertex="1">
                    <mxGeometry x="490" y="510" width="200" height="130" as="geometry"/>
                </mxCell>
                <mxCell id="GDLetpXZg3lUrLNFWh9c-39" value="+ id: PK" style="text;strokeColor=none;fillColor=none;align=left;verticalAlign=top;spacingLeft=4;spacingRight=4;overflow=hidden;rotatable=0;points=[[0,0.5],[1,0.5]];portConstraint=eastwest;whiteSpace=wrap;html=1;" parent="GDLetpXZg3lUrLNFWh9c-38" vertex="1">
                    <mxGeometry y="26" width="200" height="26" as="geometry"/>
                </mxCell>
                <object label="+ menuId: FK" text="" oi="" id="GDLetpXZg3lUrLNFWh9c-43">
                    <mxCell style="text;strokeColor=none;fillColor=none;align=left;verticalAlign=top;spacingLeft=4;spacingRight=4;overflow=hidden;rotatable=0;points=[[0,0.5],[1,0.5]];portConstraint=eastwest;whiteSpace=wrap;html=1;" parent="GDLetpXZg3lUrLNFWh9c-38" vertex="1">
                        <mxGeometry y="52" width="200" height="26" as="geometry"/>
                    </mxCell>
                </object>
                <object label="+ snackId: FK | null" text="" oi="" id="GDLetpXZg3lUrLNFWh9c-40">
                    <mxCell style="text;strokeColor=none;fillColor=none;align=left;verticalAlign=top;spacingLeft=4;spacingRight=4;overflow=hidden;rotatable=0;points=[[0,0.5],[1,0.5]];portConstraint=eastwest;whiteSpace=wrap;html=1;" parent="GDLetpXZg3lUrLNFWh9c-38" vertex="1">
                        <mxGeometry y="78" width="200" height="26" as="geometry"/>
                    </mxCell>
                </object>
                <object label="+ ingredientId: FK | null" text="" oi="" id="GDLetpXZg3lUrLNFWh9c-41">
                    <mxCell style="text;strokeColor=none;fillColor=none;align=left;verticalAlign=top;spacingLeft=4;spacingRight=4;overflow=hidden;rotatable=0;points=[[0,0.5],[1,0.5]];portConstraint=eastwest;whiteSpace=wrap;html=1;" parent="GDLetpXZg3lUrLNFWh9c-38" vertex="1">
                        <mxGeometry y="104" width="200" height="26" as="geometry"/>
                    </mxCell>
                </object>
                <mxCell id="GDLetpXZg3lUrLNFWh9c-44" style="edgeStyle=orthogonalEdgeStyle;rounded=0;orthogonalLoop=1;jettySize=auto;html=1;entryX=1;entryY=0.5;entryDx=0;entryDy=0;startArrow=none;startFill=0;" parent="1" source="GDLetpXZg3lUrLNFWh9c-43" target="GDLetpXZg3lUrLNFWh9c-34" edge="1">
                    <mxGeometry relative="1" as="geometry"/>
                </mxCell>
                <mxCell id="GDLetpXZg3lUrLNFWh9c-45" style="edgeStyle=orthogonalEdgeStyle;rounded=0;orthogonalLoop=1;jettySize=auto;html=1;entryX=0;entryY=0.5;entryDx=0;entryDy=0;endArrow=ERmany;endFill=0;startArrow=none;startFill=0;" parent="1" source="GDLetpXZg3lUrLNFWh9c-40" target="GDLetpXZg3lUrLNFWh9c-30" edge="1">
                    <mxGeometry relative="1" as="geometry">
                        <Array as="points">
                            <mxPoint x="450" y="601"/>
                            <mxPoint x="450" y="500"/>
                            <mxPoint x="170" y="500"/>
                            <mxPoint x="170" y="369"/>
                        </Array>
                    </mxGeometry>
                </mxCell>
                <mxCell id="GDLetpXZg3lUrLNFWh9c-46" style="edgeStyle=orthogonalEdgeStyle;rounded=0;orthogonalLoop=1;jettySize=auto;html=1;entryX=1;entryY=0.5;entryDx=0;entryDy=0;endArrow=ERmany;endFill=0;startArrow=none;startFill=0;" parent="1" source="GDLetpXZg3lUrLNFWh9c-41" target="GDLetpXZg3lUrLNFWh9c-15" edge="1">
                    <mxGeometry relative="1" as="geometry">
                        <Array as="points">
                            <mxPoint x="760" y="627"/>
                            <mxPoint x="760" y="199"/>
                        </Array>
                    </mxGeometry>
                </mxCell>
                <mxCell id="GDLetpXZg3lUrLNFWh9c-47" value="Orders" style="swimlane;fontStyle=0;childLayout=stackLayout;horizontal=1;startSize=26;fillColor=none;horizontalStack=0;resizeParent=1;resizeParentMax=0;resizeLast=0;collapsible=1;marginBottom=0;whiteSpace=wrap;html=1;" parent="1" vertex="1">
                    <mxGeometry x="-190" y="500" width="140" height="130" as="geometry"/>
                </mxCell>
                <mxCell id="GDLetpXZg3lUrLNFWh9c-48" value="+ id: PK" style="text;strokeColor=none;fillColor=none;align=left;verticalAlign=top;spacingLeft=4;spacingRight=4;overflow=hidden;rotatable=0;points=[[0,0.5],[1,0.5]];portConstraint=eastwest;whiteSpace=wrap;html=1;" parent="GDLetpXZg3lUrLNFWh9c-47" vertex="1">
                    <mxGeometry y="26" width="140" height="26" as="geometry"/>
                </mxCell>
                <mxCell id="GDLetpXZg3lUrLNFWh9c-49" value="+ userId: FK" style="text;strokeColor=none;fillColor=none;align=left;verticalAlign=top;spacingLeft=4;spacingRight=4;overflow=hidden;rotatable=0;points=[[0,0.5],[1,0.5]];portConstraint=eastwest;whiteSpace=wrap;html=1;" parent="GDLetpXZg3lUrLNFWh9c-47" vertex="1">
                    <mxGeometry y="52" width="140" height="26" as="geometry"/>
                </mxCell>
                <mxCell id="GDLetpXZg3lUrLNFWh9c-50" value="+ totalPrice: decimal" style="text;strokeColor=none;fillColor=none;align=left;verticalAlign=top;spacingLeft=4;spacingRight=4;overflow=hidden;rotatable=0;points=[[0,0.5],[1,0.5]];portConstraint=eastwest;whiteSpace=wrap;html=1;" parent="GDLetpXZg3lUrLNFWh9c-47" vertex="1">
                    <mxGeometry y="78" width="140" height="26" as="geometry"/>
                </mxCell>
                <mxCell id="GDLetpXZg3lUrLNFWh9c-55" value="+ orderDate: date" style="text;strokeColor=none;fillColor=none;align=left;verticalAlign=top;spacingLeft=4;spacingRight=4;overflow=hidden;rotatable=0;points=[[0,0.5],[1,0.5]];portConstraint=eastwest;whiteSpace=wrap;html=1;" parent="GDLetpXZg3lUrLNFWh9c-47" vertex="1">
                    <mxGeometry y="104" width="140" height="26" as="geometry"/>
                </mxCell>
                <mxCell id="GDLetpXZg3lUrLNFWh9c-51" value="OrderItems" style="swimlane;fontStyle=0;childLayout=stackLayout;horizontal=1;startSize=26;fillColor=none;horizontalStack=0;resizeParent=1;resizeParentMax=0;resizeLast=0;collapsible=1;marginBottom=0;whiteSpace=wrap;html=1;" parent="1" vertex="1">
                    <mxGeometry x="-190" y="680" width="140" height="156" as="geometry"/>
                </mxCell>
                <mxCell id="GDLetpXZg3lUrLNFWh9c-52" value="+ id: PK" style="text;strokeColor=none;fillColor=none;align=left;verticalAlign=top;spacingLeft=4;spacingRight=4;overflow=hidden;rotatable=0;points=[[0,0.5],[1,0.5]];portConstraint=eastwest;whiteSpace=wrap;html=1;" parent="GDLetpXZg3lUrLNFWh9c-51" vertex="1">
                    <mxGeometry y="26" width="140" height="26" as="geometry"/>
                </mxCell>
                <mxCell id="GDLetpXZg3lUrLNFWh9c-57" value="+ orderId: FK" style="text;strokeColor=none;fillColor=none;align=left;verticalAlign=top;spacingLeft=4;spacingRight=4;overflow=hidden;rotatable=0;points=[[0,0.5],[1,0.5]];portConstraint=eastwest;whiteSpace=wrap;html=1;" parent="GDLetpXZg3lUrLNFWh9c-51" vertex="1">
                    <mxGeometry y="52" width="140" height="26" as="geometry"/>
                </mxCell>
                <mxCell id="GDLetpXZg3lUrLNFWh9c-56" value="+ itemAmount: int" style="text;strokeColor=none;fillColor=none;align=left;verticalAlign=top;spacingLeft=4;spacingRight=4;overflow=hidden;rotatable=0;points=[[0,0.5],[1,0.5]];portConstraint=eastwest;whiteSpace=wrap;html=1;" parent="GDLetpXZg3lUrLNFWh9c-51" vertex="1">
                    <mxGeometry y="78" width="140" height="26" as="geometry"/>
                </mxCell>
                <mxCell id="GDLetpXZg3lUrLNFWh9c-53" value="+ snackId: FK | null" style="text;strokeColor=none;fillColor=none;align=left;verticalAlign=top;spacingLeft=4;spacingRight=4;overflow=hidden;rotatable=0;points=[[0,0.5],[1,0.5]];portConstraint=eastwest;whiteSpace=wrap;html=1;" parent="GDLetpXZg3lUrLNFWh9c-51" vertex="1">
                    <mxGeometry y="104" width="140" height="26" as="geometry"/>
                </mxCell>
                <mxCell id="GDLetpXZg3lUrLNFWh9c-54" value="+ ingredientId: FK | null" style="text;strokeColor=none;fillColor=none;align=left;verticalAlign=top;spacingLeft=4;spacingRight=4;overflow=hidden;rotatable=0;points=[[0,0.5],[1,0.5]];portConstraint=eastwest;whiteSpace=wrap;html=1;" parent="GDLetpXZg3lUrLNFWh9c-51" vertex="1">
                    <mxGeometry y="130" width="140" height="26" as="geometry"/>
                </mxCell>
                <mxCell id="GDLetpXZg3lUrLNFWh9c-58" style="edgeStyle=orthogonalEdgeStyle;rounded=0;orthogonalLoop=1;jettySize=auto;html=1;" parent="1" source="GDLetpXZg3lUrLNFWh9c-57" target="GDLetpXZg3lUrLNFWh9c-48" edge="1">
                    <mxGeometry relative="1" as="geometry">
                        <Array as="points">
                            <mxPoint x="-210" y="745"/>
                            <mxPoint x="-210" y="539"/>
                        </Array>
                    </mxGeometry>
                </mxCell>
                <mxCell id="GDLetpXZg3lUrLNFWh9c-61" style="edgeStyle=orthogonalEdgeStyle;rounded=0;orthogonalLoop=1;jettySize=auto;html=1;entryX=1;entryY=0.5;entryDx=0;entryDy=0;startArrow=ERmany;startFill=0;endArrow=none;endFill=0;" parent="1" source="GDLetpXZg3lUrLNFWh9c-49" target="GDLetpXZg3lUrLNFWh9c-60" edge="1">
                    <mxGeometry relative="1" as="geometry">
                        <Array as="points">
                            <mxPoint x="-30" y="565"/>
                            <mxPoint x="-30" y="382"/>
                        </Array>
                    </mxGeometry>
                </mxCell>
                <mxCell id="GDLetpXZg3lUrLNFWh9c-62" style="edgeStyle=orthogonalEdgeStyle;rounded=0;orthogonalLoop=1;jettySize=auto;html=1;entryX=0;entryY=0.5;entryDx=0;entryDy=0;startArrow=none;startFill=0;endArrow=ERmany;endFill=0;" parent="1" source="GDLetpXZg3lUrLNFWh9c-53" target="GDLetpXZg3lUrLNFWh9c-30" edge="1">
                    <mxGeometry relative="1" as="geometry"/>
                </mxCell>
                <mxCell id="GDLetpXZg3lUrLNFWh9c-63" style="edgeStyle=orthogonalEdgeStyle;rounded=0;orthogonalLoop=1;jettySize=auto;html=1;entryX=0;entryY=0.5;entryDx=0;entryDy=0;startArrow=none;startFill=0;endArrow=ERmany;endFill=0;" parent="1" source="GDLetpXZg3lUrLNFWh9c-54" target="GDLetpXZg3lUrLNFWh9c-15" edge="1">
                    <mxGeometry relative="1" as="geometry">
                        <Array as="points">
                            <mxPoint x="110" y="823"/>
                            <mxPoint x="110" y="199"/>
                        </Array>
                    </mxGeometry>
                </mxCell>
            </root>
        </mxGraphModel>
    </diagram>
</mxfile>